<svg width="29" height="20" viewBox="0 0 29 20" fill="none" xmlns="http://www.w3.org/2000/svg">
<path d="M9.09902 0.10376C9.90652 0.10376 10.6534 0.173913 11.3358 0.381565C12.0194 0.520468 12.5792 0.798274 13.0759 1.14483C13.5738 1.49279 13.9466 1.97825 14.1942 2.60261C14.4432 3.22697 14.5683 3.99163 14.5683 4.82365C14.5683 5.79597 14.3813 6.62798 13.9466 7.25234C13.5738 7.87811 12.952 8.43231 12.2064 8.84902C13.2629 9.19698 14.0704 9.82134 14.5683 10.6548C15.0649 11.4868 15.3758 12.5278 15.3758 13.7078C15.3758 14.6801 15.1888 15.5121 14.8779 16.2067C14.5683 16.9012 14.0704 17.5255 13.5106 17.9422C12.9025 18.3889 12.2302 18.7172 11.5228 18.9132C10.7772 19.1222 10.0316 19.2611 9.28605 19.2611H0.957031V0.10376H9.09902ZM8.60112 7.8767C9.28478 7.8767 9.8446 7.66905 10.2793 7.3225C10.714 6.97594 10.9011 6.35018 10.9011 5.58691C10.9011 5.1702 10.8379 4.7549 10.714 4.47709C10.5902 4.19929 10.4032 3.99023 10.1555 3.78258C9.90652 3.64368 9.65757 3.50477 9.34671 3.43602C9.03584 3.36587 8.72623 3.36587 8.35218 3.36587H4.74812V7.87811H8.60239L8.60112 7.8767ZM8.78815 16.0678C9.16094 16.0678 9.53373 15.9976 9.8446 15.9289C10.1555 15.8587 10.4663 15.7212 10.714 15.5121C10.9672 15.309 11.1791 15.049 11.3358 14.7489C11.4596 14.4023 11.5847 13.9856 11.5847 13.5002C11.5847 12.5278 11.3358 11.8333 10.8391 11.3479C10.3412 10.9312 9.65757 10.7235 8.85007 10.7235H4.74812V16.0692L8.78815 16.0678ZM20.7831 15.9976C21.2798 16.5532 22.0254 16.831 23.0199 16.831C23.7036 16.831 24.3253 16.6234 24.8219 16.2768C25.3198 15.8601 25.6307 15.4434 25.7545 15.0281H28.8C28.3021 16.6921 27.5566 17.8721 26.5633 18.6368C25.5675 19.3299 24.3872 19.7466 22.958 19.7466C22.0435 19.7497 21.1367 19.5612 20.2853 19.191C19.519 18.8719 18.8357 18.3475 18.2962 17.6644C17.7191 17.0254 17.2924 16.2386 17.054 15.3732C16.7431 14.4711 16.618 13.5002 16.618 12.3889C16.618 11.3479 16.7431 10.377 17.054 9.47338C17.3534 8.604 17.7961 7.80417 18.3594 7.11484C18.9269 6.46782 19.6019 5.94895 20.3472 5.58691C21.177 5.21659 22.0636 5.02793 22.958 5.0313C24.0144 5.0313 24.947 5.24036 25.7545 5.72582C26.5633 6.21127 27.1838 6.76688 27.6804 7.6003C28.1783 8.36356 28.5524 9.26573 28.8 10.2381C28.9239 11.209 28.9858 12.1813 28.9239 13.2911H19.9125C19.9125 14.4023 20.2853 15.4434 20.7831 15.999V15.9976ZM24.6981 8.71012C24.2634 8.22466 23.5797 7.94686 22.7709 7.94686C22.2124 7.94686 21.7764 8.08716 21.4036 8.29481C21.0308 8.50247 20.7831 8.78027 20.5342 9.05808C20.305 9.32629 20.1532 9.66437 20.0982 10.029C20.0363 10.377 19.9744 10.6548 19.9744 10.9312H25.5675C25.4437 9.89009 25.1328 9.19698 24.6981 8.71012ZM19.2288 1.42263H26.1892V3.29712H19.2301V1.42263H19.2288Z" fill="white"/>
</svg>
